<svg xmlns="http://www.w3.org/2000/svg" viewBox="0 0 280.52 161.76"><defs><style>.cls-1{fill:#034161;}</style></defs><title>logo-vac</title><g id="Layer_2" data-name="Layer 2"><g id="Layer_1-2" data-name="Layer 1"><path class="cls-1" d="M249.1,27.19H206.46c-4-.05-8,.78-5.94,5.74L229.4,93.69c1.54,2.71,3.23,3.71,9,3.77H249v27.9l-19.55,0c-10.39,0-16.92-2.09-20.95-9.09L166,25.75C160.14,12.18,166.34,0,183.5.06h65.6Z"/><path class="cls-1" d="M161.18,125.32l-6-12.48H86.94l-6.28,12.45H50.16L112.79,0h18.85l60.73,125.32ZM142.32,85.14,121.77,42.21,100.46,85.14Z"/><polygon class="cls-1" points="30.62 125.3 0.69 125.3 0.69 0 27.67 0 28.9 68.42 62.84 0.03 92.81 0.03 30.62 125.3"/><path class="cls-1" d="M8.68,138h3L7,161.46H4.54L0,138H3.11l2.68,17.65h.06"/><path class="cls-1" d="M23,154.42H19.3l1.87-11.9h.06M20,138,14.9,161.46H18l.87-4.6h4.68l.87,4.6h3.15L22.48,138Z"/><path class="cls-1" d="M42.42,141.21a4.55,4.55,0,0,0-2-.59c-4.36,0-4.39,6.34-4.39,9.25,0,3.11.25,8.95,4.52,8.95a3.9,3.9,0,0,0,1.87-.47v2.74a4.33,4.33,0,0,1-2.5.66c-6.35,0-7.19-6.75-7.19-11.66,0-4.69.59-12.41,7-12.41a4.84,4.84,0,0,1,2.71.69Z"/><path class="cls-1" d="M52.86,138v17.2c0,3,.91,3.64,2.2,3.64,2.17,0,2.36-1.37,2.4-3.3V138h3.09v16.64c0,3.08,0,7.13-5.39,7.13-5,0-5.4-3.37-5.4-7.6V138Z"/><path class="cls-1" d="M72,138v17.2c0,3,.91,3.64,2.2,3.64,2.17,0,2.36-1.37,2.39-3.3V138h3.1v16.64c0,3.08,0,7.13-5.39,7.13-5,0-5.4-3.37-5.4-7.6V138Z"/><path class="cls-1" d="M98.65,138h2.74l2.18,23.48h-3l-.56-8.75-.19-4.36-.06-3.09h-.06l-.53,3.37-2.43,12.83H94.54l-3-16.2h-.07l-.9,16.2h-3L89.52,138H92.2l3.33,16.94h.07"/><path class="cls-1" d="M119.6,141.62a4.25,4.25,0,0,0-2.64-1,2.83,2.83,0,0,0-2.81,3,3.74,3.74,0,0,0,.89,2.55l2.39,2.57c2.11,2.15,3.32,3.7,3.32,6.87s-2,6.13-5.53,6.13a5.46,5.46,0,0,1-3.42-1.12V157.5a5.08,5.08,0,0,0,3.08,1.21c2,0,2.77-1.52,2.77-3.26,0-4.67-6.59-5.6-6.59-11.75,0-3.3,1.73-6,5.27-6a6.21,6.21,0,0,1,3.3.79Z"/><path class="cls-1" d="M137.41,141.21a4.55,4.55,0,0,0-2-.59c-4.36,0-4.39,6.34-4.39,9.25,0,3.11.25,8.95,4.52,8.95a3.93,3.93,0,0,0,1.87-.47v2.74a4.33,4.33,0,0,1-2.5.66c-6.35,0-7.19-6.75-7.19-11.66,0-4.69.59-12.41,7-12.41a4.84,4.84,0,0,1,2.71.69Z"/><path class="cls-1" d="M149.05,138v9.14h4.74V138h3.1v23.48h-3.1V149.82h-4.74v11.64H146V138Z"/><path class="cls-1" d="M177,145.26h-.07l-.52,3.37L174,161.46h-2.16l-3-16.2h-.06l-.9,16.2h-3L166.81,138h2.68l3.33,16.94h.06l.1-1,.93-5.63,2-10.34h2.74l2.18,23.48h-3.05"/><path class="cls-1" d="M198,138v2.7h-5.27v7.39h4.71v2.7h-4.71v8H198v2.7h-8.37V138Z"/><path class="cls-1" d="M210.48,138v20.78h5.24v2.7h-8.33V138Z"/><path class="cls-1" d="M232.82,138l-7.08,20.78h6.71v2.7H221.59l7.14-20.78h-6.3V138Z"/><path class="cls-1" d="M249.38,138v2.7h-5.27v7.39h4.71v2.7h-4.71v8h5.27v2.7H241V138Z"/><path class="cls-1" d="M276.74,22.27a12.89,12.89,0,0,1-18.26,0,12.52,12.52,0,0,1-3.75-9.16A12.42,12.42,0,0,1,258.51,4a12.93,12.93,0,0,1,18.23,0,12.39,12.39,0,0,1,3.78,9.11A12.52,12.52,0,0,1,276.74,22.27Zm-17-17a10.73,10.73,0,0,0-3.24,7.86A10.89,10.89,0,0,0,259.74,21a11.08,11.08,0,0,0,15.72,0,10.86,10.86,0,0,0,3.23-7.91,10.76,10.76,0,0,0-3.23-7.86,11.06,11.06,0,0,0-15.7,0Zm7.59.72a10.81,10.81,0,0,1,3.87.51,3.53,3.53,0,0,1,2.2,3.59,3.09,3.09,0,0,1-1.39,2.8,5.47,5.47,0,0,1-2,.68A3.47,3.47,0,0,1,272.42,15a3.91,3.91,0,0,1,.77,2.2v1c0,.33,0,.68,0,1.06a2.3,2.3,0,0,0,.13.73l.08.18H271.1l0-.14,0-.16L271,19.4V18.28c0-1.63-.44-2.71-1.33-3.24a6.11,6.11,0,0,0-2.78-.45h-2v5.57h-2.5V6Zm2.7,2.23a6.56,6.56,0,0,0-3-.52h-2.13v5.13h2.26a6.78,6.78,0,0,0,2.38-.32A2.18,2.18,0,0,0,271,10.3,2.17,2.17,0,0,0,270.05,8.22Z"/></g></g></svg>